# xmcd
#
# Track frame offsets: 
#        150
#        10954
#        29776
#        43418
#        57080
#        79406
#        92380
#        105420
#        118694
#        136733
#        153381
#        177794
#        197868
#        213917
#        233356
#        246138
#        260908
#        275537
#        291306
#
# Disc length: 4119 seconds
#
# Revision: 0
# Processed by: cddbd v1.4PL0 Copyright (c) Steve Scherf et al.
# Submitted via: ExactAudioCopy v0.90b4
#
DISCID=0f101513
DTITLE=Lucinda Williams - Lucinda Williams Self Tilted and Sweet Old W
DTITLE=orld Demos
DYEAR=1900
DGENRE=Country
TTITLE0=I Just Wanted To See You So Bad
TTITLE1=The Night's Too Long
TTITLE2=Like A Rose
TTITLE3=Crescent City
TTITLE4=Sidewalks Of The City
TTITLE5=Passionate Kisses
TTITLE6=Sundays
TTITLE7=Six Blocks Away
TTITLE8=Something About What Happens When We Talk
TTITLE9=Sidewalks Of The City
TTITLE10=Hot Blood
TTITLE11=Liitle Angel, Little Brother
TTITLE12=What You Don't Know
TTITLE13=Sweet Old World
TTITLE14=Prove My Love
TTITLE15=Drivin' On A Dead End Street [He Never Got Enough Love]
TTITLE16=Lines Around Your Eyes (different lyrics)
TTITLE17=Pineola
TTITLE18=Which Will
EXTD=
EXTT0=
EXTT1=
EXTT2=
EXTT3=
EXTT4=
EXTT5=
EXTT6=
EXTT7=
EXTT8=
EXTT9=
EXTT10=
EXTT11=
EXTT12=
EXTT13=
EXTT14=
EXTT15=
EXTT16=
EXTT17=
EXTT18=
PLAYORDER=
